<svg width="50" height="50" viewBox="0 0 50 50" fill="none" xmlns="http://www.w3.org/2000/svg">
<path fill-rule="evenodd" clip-rule="evenodd" d="M7.29169 25C7.29169 15.2199 15.22 7.29166 25 7.29166C34.7801 7.29166 42.7084 15.2199 42.7084 25C42.7084 34.78 34.7801 42.7083 25 42.7083C15.22 42.7083 7.29169 34.78 7.29169 25ZM26.5625 14.5833C26.5625 13.7204 25.863 13.0208 25 13.0208C24.1371 13.0208 23.4375 13.7204 23.4375 14.5833V25C23.4375 25.5387 23.7151 26.0395 24.1719 26.325L30.4219 30.2312C31.1537 30.6886 32.1177 30.4661 32.575 29.7344C33.0324 29.0026 32.8099 28.0386 32.0781 27.5812L26.5625 24.134V14.5833Z" fill="rgb(0, 151, 225)"/>
</svg>
