<svg width="50" height="50" viewBox="0 0 50 50" fill="none" xmlns="http://www.w3.org/2000/svg">
<path fill-rule="evenodd" clip-rule="evenodd" d="M15.2213 16.1629L15.936 22.5953L14.4897 22.7108C12.4728 22.8718 10.8259 24.3879 10.499 26.3846C9.74547 30.9864 9.74547 35.6802 10.499 40.2821C10.8259 42.2788 12.4728 43.7949 14.4897 43.9559L17.6066 44.2048C22.5277 44.5976 27.4724 44.5976 32.3935 44.2048L35.5104 43.9559C37.5273 43.7949 39.1742 42.2788 39.5011 40.2821C40.2546 35.6802 40.2546 30.9864 39.5011 26.3846C39.1742 24.3879 37.5273 22.8718 35.5104 22.7108L34.0639 22.5953L34.7786 16.1629C34.8629 15.4046 34.8629 14.6393 34.7786 13.881L34.7312 13.4541C34.2281 8.92625 30.6685 5.34363 26.144 4.81133C25.3839 4.72191 24.616 4.72191 23.8559 4.81133C19.3314 5.34363 15.7718 8.92625 15.2687 13.4541L15.2213 13.881C15.137 14.6393 15.137 15.4046 15.2213 16.1629ZM25.7788 7.91492C25.2614 7.85404 24.7385 7.85404 24.2211 7.91492C21.1406 8.27733 18.7171 10.7165 18.3746 13.7992L18.3272 14.2261C18.2684 14.755 18.2684 15.2888 18.3272 15.8178L19.0538 22.3578C23.0138 22.1038 26.9861 22.1038 30.9461 22.3577L31.6727 15.8178C31.7315 15.2888 31.7315 14.755 31.6727 14.2261L31.6253 13.7992C31.2828 10.7165 28.8593 8.27733 25.7788 7.91492ZM25 30.2083C23.2741 30.2083 21.875 31.6075 21.875 33.3333C21.875 35.0592 23.2741 36.4583 25 36.4583C26.7259 36.4583 28.125 35.0592 28.125 33.3333C28.125 31.6075 26.7259 30.2083 25 30.2083Z" fill="rgb(228, 59, 94)"/>
</svg>
