<svg width="50" height="50" viewBox="0 0 50 50" fill="none" xmlns="http://www.w3.org/2000/svg">
<path d="M35.991 11.3958C36.8977 11.7298 37.5 12.5937 37.5 13.5599L37.5 36.4401C37.5 37.4063 36.8977 38.2702 35.991 38.6042C34.2756 39.2362 32.3911 39.2362 30.6757 38.6042C29.769 38.2702 29.1667 37.4063 29.1667 36.4401L29.1667 13.5599C29.1667 12.5937 29.769 11.7298 30.6757 11.3958C32.3911 10.7638 34.2756 10.7638 35.991 11.3958Z" fill="rgb(255, 124, 75)"/>
<path d="M19.3243 11.3958C20.231 11.7298 20.8333 12.5937 20.8333 13.5599L20.8333 36.4401C20.8333 37.4063 20.231 38.2702 19.3243 38.6042C17.6089 39.2362 15.7244 39.2362 14.009 38.6042C13.1023 38.2702 12.5 37.4063 12.5 36.4401L12.5 13.5599C12.5 12.5937 13.1023 11.7298 14.009 11.3958C15.7244 10.7638 17.6089 10.7638 19.3243 11.3958Z" fill="rgb(255, 124, 75)"/>
</svg>
